<?xml version="1.0"?><svg width="640" height="480" xmlns="http://www.w3.org/2000/svg" xmlns:xlink="http://www.w3.org/1999/xlink">
 <title>Hollywood</title>
 <defs>
  <linearGradient id="linearGradient3247">
   <stop stop-color="#e6e6e6" id="stop3249" offset="0"/>
   <stop stop-color="#e6e6e6" stop-opacity="0" id="stop3251" offset="1"/>
  </linearGradient>
  <clipPath id="clipPath2407" clipPathUnits="userSpaceOnUse">
   <rect fill="#ffffff" fill-rule="nonzero" stroke-width="27.99" stroke-linejoin="round" stroke-miterlimit="4" stroke-dasharray="27.98999977, 27.98999977" stroke-dashoffset="279.899998" y="265" x="800" height="150" width="75" id="rect2409"/>
  </clipPath>
  <clipPath id="clipPath2415" clipPathUnits="userSpaceOnUse">
   <rect fill="#ffffff" fill-rule="nonzero" stroke-width="27.99" stroke-linejoin="round" stroke-miterlimit="4" stroke-dasharray="27.98999977, 27.98999977" stroke-dashoffset="279.899998" y="240" x="725" height="175" width="75" id="rect2417"/>
  </clipPath>
  <radialGradient gradientTransform="matrix(0.40534642338752747,-3.6987350426898047e-7,2.7247364187132916e-7,0.4985694885253906,-38.28912353515625,-16.982650756835938)" gradientUnits="userSpaceOnUse" r="25" fy="340" fx="149.99998" cy="340" cx="149.99998" id="radialGradient3253" xlink:href="#linearGradient3247"/>
  <radialGradient r="25" fy="340" fx="149.99998" cy="340" cx="149.99998" gradientTransform="matrix(0.40534642338752747,-3.6987350426898047e-7,2.7247364187132916e-7,0.4985694885253906,122.453125,-15.23150634765625)" gradientUnits="userSpaceOnUse" id="radialGradient3257" xlink:href="#linearGradient3247"/>
  <radialGradient r="25" fy="340" fx="149.99998" cy="340" cx="149.99998" gradientTransform="matrix(0.40534642338752747,-3.6987350426898047e-7,2.7247364187132916e-7,0.4985694885253906,-36.63201904296875,-190.3460693359375)" gradientUnits="userSpaceOnUse" id="radialGradient3261" xlink:href="#linearGradient3247"/>
 </defs>
 <metadata id="metadata7">image/svg+xml</metadata>
 <g>
  <title>Layer 1</title>
  <g id="layer1">
   <rect fill="#000000" fill-rule="nonzero" stroke="#000000" stroke-width="1.074064" stroke-miterlimit="4" stroke-dashoffset="279.9" y="95.500597" x="-29.212527" height="403.80942" width="674.92596" id="rect2383"/>
   <rect fill="#000000" fill-rule="nonzero" stroke-width="27.99" stroke-linejoin="round" stroke-miterlimit="4" stroke-dasharray="27.98999977, 27.98999977" stroke-dashoffset="279.899998" y="95.463577" x="-29.249557" height="100" width="675" id="rect2387"/>
   <path fill="#ffffff" fill-rule="evenodd" stroke="#000000" stroke-width="1px" id="path2395" d="m-29.249573,95.463577l50,99.999985l75,0l-50,-99.999985l-75,0z"/>
   <path fill="#ffffff" fill-rule="evenodd" stroke="#000000" stroke-width="1px" d="m120.750427,95.463577l50,99.999985l75,0l-50,-99.999985l-75,0z" id="path2397"/>
   <path fill="#ffffff" fill-rule="evenodd" stroke="#000000" stroke-width="1px" id="path2399" d="m270.750427,95.463577l50,99.999985l75,0l-50,-99.999985l-75,0z"/>
   <path fill="#ffffff" fill-rule="evenodd" stroke="#000000" stroke-width="1px" d="m420.750427,95.463577l50,99.999985l75,0l-50,-99.999985l-75,0z" id="path2401"/>
   <path fill="#ffffff" fill-rule="evenodd" stroke="#000000" stroke-width="1px" clip-path="url(#clipPath2415)" id="path2411" d="m570.750427,95.463577l50,99.999985l75,0l-50,-99.999985l-75,0z"/>
   <g id="g3199">
    <g id="g3277">
     <rect fill="#000000" fill-rule="nonzero" stroke="#000000" stroke-width="1.019928" stroke-miterlimit="4" stroke-dasharray="1.01992769, 1.01992769" stroke-dashoffset="10.199277" transform="matrix(0.983956, -0.178411, 0.178124, 0.984008, -49.4447, 26.3284)" y="-28.53394" x="7.151966" height="101.87254" width="674.97968" id="rect2385"/>
     <path fill="#ffffff" fill-rule="evenodd" stroke="#000000" stroke-width="1px" d="m-29.688477,95.319901l31.65329,-107.229065l73.833405,-13.176758l-31.653259,107.22905l-73.833435,13.176773z" id="path3189"/>
     <path fill="#ffffff" fill-rule="evenodd" stroke="#000000" stroke-width="1px" id="path3191" d="m117.978394,68.96637l31.653259,-107.22905l73.833405,-13.176758l-31.65329,107.229065l-73.833374,13.176743z"/>
     <path fill="#ffffff" fill-rule="evenodd" stroke="#000000" stroke-width="1px" d="m265.645203,42.612854l31.653259,-107.22905l73.833405,-13.176758l-31.653259,107.22905l-73.833405,13.176758z" id="path3193"/>
     <path fill="#ffffff" fill-rule="evenodd" stroke="#000000" stroke-width="1px" id="path3195" d="m413.312012,16.259338l31.653259,-107.22905l73.833435,-13.176758l-31.653259,107.22905l-73.833435,13.176758z"/>
     <path fill="#ffffff" fill-rule="evenodd" stroke="#000000" stroke-width="1px" d="m560.978821,-10.094193l31.653259,-107.229057l73.833435,-13.17675l-31.653259,107.22905l-73.833435,13.176758z" id="path3197" clip-path="url(#clipPath2415)"/>
    </g>
   </g>
   <path fill="#ffffff" stroke-width="1px" id="text3207" d="m120.951241,240.538574l0,-22.430695l8.461235,0c1.489258,0 2.626617,0.071411 3.412048,0.214172c1.101624,0.183655 2.02478,0.53302 2.769409,1.048126c0.744629,0.515137 1.343903,1.236816 1.797852,2.165039c0.453888,0.928253 0.680847,1.948273 0.680847,3.06012c0,1.907471 -0.606934,3.521698 -1.82074,4.842651c-1.213867,1.320953 -3.406982,1.981415 -6.579285,1.981415l-5.753044,0l0,9.119171l-2.968323,0zm2.968323,-11.766174l5.798943,0c1.917664,0 3.279419,-0.356995 4.085266,-1.071045c0.805817,-0.71402 1.20874,-1.71875 1.20874,-3.014221c0,-0.938416 -0.237183,-1.741699 -0.711487,-2.409851c-0.474304,-0.668121 -1.099091,-1.109283 -1.874298,-1.323517c-0.499847,-0.132568 -1.422974,-0.198883 -2.76944,-0.198914l-5.737724,0l0,8.017548zm18.008842,11.766174l0,-22.430695l9.945404,0c1.999268,0 3.519135,0.201477 4.559601,0.60437c1.040405,0.402924 1.871735,1.11441 2.493988,2.13443c0.622223,1.02005 0.933319,2.147186 0.933319,3.381439c0,1.591278 -0.515137,2.932617 -1.545349,4.024048c-1.030273,1.091461 -2.621521,1.785095 -4.773804,2.080902c0.785431,0.377411 1.382141,0.749725 1.790192,1.116943c0.867035,0.795624 1.688141,1.790161 2.463409,2.983612l3.901642,6.10495l-3.733368,0l-2.968323,-4.666687c-0.867035,-1.346466 -1.581055,-2.376678 -2.142059,-3.090729c-0.561066,-0.71402 -1.063416,-1.213837 -1.507111,-1.499451c-0.443726,-0.285614 -0.895111,-0.484528 -1.354126,-0.596741c-0.336609,-0.071381 -0.887451,-0.107086 -1.652466,-0.107086l-3.442627,0l0,9.960693l-2.968323,0zm2.968323,-12.531219l6.380371,0c1.356628,0.000031 2.41748,-0.140228 3.182495,-0.420746c0.765015,-0.280518 1.346436,-0.729309 1.744293,-1.346466c0.397797,-0.617096 0.59671,-1.287781 0.59671,-2.012024c0,-1.060822 -0.385071,-1.932983 -1.155182,-2.616425c-0.770172,-0.683411 -1.986542,-1.025116 -3.6492,-1.025116l-7.099487,0l0,7.420776zm18.727966,1.606567c0,-3.723114 0.999634,-6.637909 2.998901,-8.744293c1.999268,-2.106384 4.579987,-3.159576 7.742126,-3.159576c2.070679,0 3.937347,0.49472 5.600037,1.484161c1.662659,0.989441 2.930054,2.369049 3.802185,4.138824c0.872131,1.769775 1.308167,3.776703 1.308228,6.020782c-0.000061,2.274689 -0.459045,4.309692 -1.377075,6.10495c-0.91806,1.795288 -2.218628,3.15448 -3.901672,4.077606c-1.683044,0.923157 -3.498718,1.384705 -5.447021,1.384705c-2.111481,0 -3.998535,-0.51001 -5.661194,-1.53006c-1.662689,-1.02005 -2.922424,-2.412384 -3.779266,-4.177063c-0.856842,-1.764648 -1.285248,-3.631348 -1.285248,-5.600037l0,0zm3.06012,0.045929c0,2.703094 0.726746,4.832428 2.180359,6.388c1.453522,1.555542 3.276855,2.333344 5.469971,2.333344c2.233856,0 4.072479,-0.785431 5.515869,-2.356323c1.443298,-1.570831 2.164978,-3.799622 2.165039,-6.686371c-0.000061,-1.825836 -0.308594,-3.419647 -0.92572,-4.781433c-0.617126,-1.361725 -1.519867,-2.41748 -2.708191,-3.167236c-1.188354,-0.749695 -2.522064,-1.124573 -4.001099,-1.124573c-2.101318,0 -3.909363,0.72168 -5.424072,2.165039c-1.514771,1.443359 -2.272156,3.85321 -2.272156,7.229553l0,0zm22.201202,10.878723l0,-22.430695l7.726807,0c1.744263,0 3.075409,0.107117 3.993469,0.321289c1.285217,0.295837 2.381775,0.83136 3.289642,1.606567c1.183228,0.999664 2.068115,2.277283 2.654633,3.832825c0.586517,1.555573 0.879761,3.332977 0.879791,5.332245c-0.000031,1.703491 -0.198914,3.213165 -0.59671,4.528992c-0.397858,1.315857 -0.907867,2.404755 -1.53006,3.266693c-0.622253,0.861938 -1.303131,1.540253 -2.042633,2.034973c-0.739563,0.49472 -1.63208,0.869568 -2.677612,1.124603c-1.045563,0.255005 -2.246674,0.382507 -3.603302,0.382507l-8.094025,0zm2.968292,-2.647003l4.789124,0c1.479034,0 2.639343,-0.137695 3.480896,-0.413116c0.841522,-0.275421 1.512177,-0.663025 2.012024,-1.162842c0.703796,-0.703827 1.252075,-1.649902 1.644806,-2.838287c0.3927,-1.188324 0.58905,-2.62915 0.589081,-4.322418c-0.000031,-2.346069 -0.385071,-4.148987 -1.155212,-5.408752c-0.770111,-1.259735 -1.706024,-2.103821 -2.807648,-2.532257c-0.795654,-0.306 -2.075806,-0.459015 -3.840454,-0.459045l-4.712616,0l0,17.136719zm34.395813,-19.783691l2.968323,0l0,12.959595c0,2.254303 -0.255035,4.044495 -0.765015,5.370544c-0.51004,1.32605 -1.430634,2.404724 -2.76178,3.236053c-1.331146,0.83136 -3.077972,1.247009 -5.240448,1.247009c-2.101288,0 -3.820068,-0.362091 -5.156311,-1.086334c-1.336273,-0.724243 -2.290009,-1.772308 -2.861206,-3.144287c-0.571259,-1.371948 -0.856842,-3.246277 -0.856842,-5.622986l0,-12.959595l2.968323,0l0,12.944305c0,1.948303 0.18103,3.384003 0.543152,4.307129c0.362122,0.923157 0.984344,1.634613 1.866669,2.13443c0.882355,0.499817 1.961029,0.749756 3.236084,0.749725c2.182892,0.000031 3.738464,-0.49469 4.666687,-1.484161c0.928223,-0.98941 1.392365,-2.891815 1.392365,-5.707123l0,-12.944305zm23.930176,14.566162l2.968323,0.749756c-0.622253,2.437897 -1.74173,4.296906 -3.35849,5.577057c-1.616791,1.280151 -3.593109,1.920227 -5.928986,1.920227c-2.417511,0 -4.383636,-0.492157 -5.898376,-1.476501c-1.514771,-0.984344 -2.667419,-2.409851 -3.457947,-4.27652c-0.790527,-1.866669 -1.185822,-3.871063 -1.185791,-6.013153c-0.000031,-2.335876 0.446259,-4.373413 1.338776,-6.112579c0.892548,-1.739166 2.162506,-3.06012 3.809875,-3.96286c1.647339,-0.90274 3.46048,-1.354095 5.439362,-1.354126c2.24408,0.000031 4.131165,0.571259 5.661224,1.713684c1.53006,1.142456 2.596008,2.749023 3.197845,4.819702l-2.922424,0.688507c-0.520233,-1.63205 -1.275055,-2.820404 -2.264496,-3.565033c-0.989441,-0.744629 -2.233887,-1.116943 -3.733337,-1.116943c-1.723907,0 -3.164703,0.413116 -4.322449,1.239349c-1.157745,0.826233 -1.971222,1.935547 -2.44043,3.327881c-0.469238,1.392365 -0.703827,2.828064 -0.703827,4.307129c0,1.907471 0.277954,3.572693 0.833862,4.995636c0.555939,1.422974 1.42041,2.486359 2.593475,3.190186c1.173035,0.703827 2.442993,1.055756 3.809845,1.055756c1.662659,0 3.070313,-0.479431 4.222992,-1.438263c1.152618,-0.958832 1.932953,-2.381805 2.340973,-4.26889l0,0zm12.347595,7.864532l0,-19.783722l-7.390198,0l0,-2.646973l17.779327,0l0,2.646973l-7.420807,0l0,19.783722l-2.968323,0zm13.954193,0l0,-22.430695l2.968323,0l0,22.430695l-2.968323,0zm7.283081,-10.924652c0,-3.723114 0.999634,-6.637909 2.998932,-8.744293c1.999268,-2.106384 4.579987,-3.159576 7.742126,-3.159576c2.070648,0 3.937317,0.49472 5.600006,1.484161c1.662659,0.989441 2.930054,2.369049 3.802216,4.138824c0.872101,1.769775 1.308167,3.776703 1.308197,6.020782c-0.000031,2.274689 -0.459045,4.309692 -1.377045,6.10495c-0.91806,1.795288 -2.218628,3.15448 -3.901672,4.077606c-1.683075,0.923157 -3.498749,1.384705 -5.447021,1.384705c-2.111481,0 -3.998566,-0.51001 -5.661224,-1.53006c-1.662659,-1.02005 -2.922424,-2.412384 -3.779266,-4.177063c-0.856812,-1.764648 -1.285248,-3.631348 -1.285248,-5.600037l0,0zm3.06012,0.045929c0,2.703094 0.726776,4.832428 2.180359,6.388c1.453552,1.555542 3.276855,2.333344 5.469971,2.333344c2.233856,0 4.07251,-0.785431 5.515869,-2.356323c1.443329,-1.570831 2.165009,-3.799622 2.165039,-6.686371c-0.000031,-1.825836 -0.308594,-3.419647 -0.92569,-4.781433c-0.617157,-1.361725 -1.519897,-2.41748 -2.708221,-3.167236c-1.188354,-0.749695 -2.522064,-1.124573 -4.001099,-1.124573c-2.101318,0 -3.909332,0.72168 -5.424072,2.165039c-1.514771,1.443359 -2.272156,3.85321 -2.272156,7.229553l0,0zm22.170593,10.878723l0,-22.430695l3.04483,0l11.781494,17.610992l0,-17.610992l2.845917,0l0,22.430695l-3.04483,0l-11.781494,-17.626312l0,17.626312l-2.845917,0z" transform="translate(-106.25, -63.5364) scale(0.809895, 1.23473)"/>
   <path fill="#ffffff" stroke-width="1px" id="text3219" d="m128.35965,442.202087l0,-22.430725l7.726837,0c1.744232,0.000061 3.075378,0.107117 3.993439,0.32135c1.285248,0.295837 2.381805,0.83136 3.289642,1.606567c1.183228,0.999634 2.068115,2.277222 2.654663,3.832764c0.586487,1.555603 0.879761,3.333008 0.879761,5.332275c0,1.703491 -0.198914,3.213135 -0.59671,4.528992c-0.397858,1.315857 -0.907867,2.404785 -1.53006,3.266663c-0.622253,0.861938 -1.303101,1.540283 -2.042633,2.034973c-0.739532,0.494751 -1.63208,0.869629 -2.677612,1.124634c-1.045563,0.255005 -2.246674,0.382507 -3.603302,0.382507l-8.094025,0zm2.968323,-2.647034l4.789093,0c1.479065,0.000061 2.639343,-0.137695 3.480896,-0.413086c0.841522,-0.275391 1.512207,-0.663025 2.012024,-1.162842c0.703796,-0.703857 1.252075,-1.649902 1.644836,-2.838257c0.3927,-1.188354 0.58905,-2.62915 0.58905,-4.322449c0,-2.346069 -0.385071,-4.148987 -1.155212,-5.408752c-0.770111,-1.259766 -1.705994,-2.103821 -2.807617,-2.532288c-0.795654,-0.305969 -2.075806,-0.458984 -3.840485,-0.458984l-4.712585,0l0,17.136658zm17.213196,2.647034l8.614258,-22.430725l3.197845,0l9.180359,22.430725l-3.381439,0l-2.616425,-6.793457l-9.379272,0l-2.463379,6.793457l-3.151947,0zm6.472168,-9.210999l7.604401,0l-2.341003,-6.212036c-0.71402,-1.887024 -1.244446,-3.4375 -1.591248,-4.651367c-0.285645,1.438232 -0.688538,2.866333 -1.20874,4.28418l-2.463409,6.579224zm22.629608,9.210999l0,-19.783691l-7.390198,0l0,-2.647034l17.779327,0l0,2.647034l-7.420807,0l0,19.783691l-2.968323,0zm13.510468,0l0,-22.430725l16.218658,0l0,2.647034l-13.250336,0l0,6.869995l12.408783,0l0,2.631653l-12.408783,0l0,7.63501l13.770569,0l0,2.647034l-16.738892,0z" transform="translate(-106.25, -63.5364) scale(0.809895, 1.23473)"/>
   <path fill="#ffffff" stroke-width="1px" id="text3223" d="m144.364105,393.843201l2.968323,0.749756c-0.622253,2.437897 -1.74173,4.296906 -3.35849,5.577057c-1.616791,1.280151 -3.593109,1.920227 -5.929016,1.920227c-2.41748,0 -4.383606,-0.492157 -5.898376,-1.476501c-1.514771,-0.984344 -2.667419,-2.409851 -3.457947,-4.27652c-0.79052,-1.866669 -1.185783,-3.871063 -1.185783,-6.013153c0,-2.335846 0.446289,-4.373383 1.338799,-6.112549c0.892517,-1.739166 2.162476,-3.06012 3.809875,-3.96286c1.647339,-0.90274 3.460449,-1.354095 5.439362,-1.354126c2.244049,0.000031 4.131134,0.571259 5.661224,1.713684c1.530029,1.142456 2.596008,2.749023 3.197815,4.819702l-2.922394,0.688507c-0.520233,-1.63205 -1.275055,-2.820404 -2.264496,-3.565033c-0.989441,-0.744629 -2.233887,-1.116943 -3.733337,-1.116943c-1.723907,0 -3.164703,0.413116 -4.322449,1.239349c-1.157776,0.826233 -1.971252,1.935547 -2.44043,3.327881c-0.469238,1.392365 -0.703857,2.828033 -0.703857,4.307098c0,1.907471 0.277954,3.572693 0.833893,4.995636c0.555939,1.422974 1.42041,2.486359 2.593475,3.190186c1.173035,0.703827 2.442993,1.055756 3.809814,1.055756c1.662659,0 3.070313,-0.479431 4.223022,-1.438263c1.152588,-0.958832 1.932922,-2.381805 2.340973,-4.26889l0,0zm4.177063,7.864532l8.614258,-22.430664l3.197845,0l9.180359,22.430664l-3.381439,0l-2.616425,-6.793488l-9.379272,0l-2.463379,6.793488l-3.151947,0zm6.472168,-9.210968l7.604401,0l-2.341003,-6.212036c-0.71402,-1.887054 -1.244446,-3.4375 -1.591248,-4.651398c-0.285645,1.438293 -0.688538,2.866364 -1.20874,4.28418l-2.463409,6.579254zm16.830688,9.210968l0,-22.430664l4.467773,0l5.309326,15.881989c0.489594,1.479065 0.846619,2.585815 1.071014,3.320251c0.255005,-0.81604 0.652832,-2.014587 1.193481,-3.595642l5.370514,-15.606598l3.993439,0l0,22.430664l-2.861206,0l0,-18.773834l-6.518066,18.773834l-2.677612,0l-6.487427,-19.095154l0,19.095154l-2.861237,0zm26.286469,0l0,-22.430664l16.218658,0l0,2.646973l-13.250336,0l0,6.869965l12.408783,0l0,2.631714l-12.408783,0l0,7.63501l13.770569,0l0,2.647003l-16.738892,0zm20.915955,0l0,-22.430664l9.945404,0c1.999268,0 3.519135,0.201477 4.55957,0.60437c1.040436,0.402924 1.871765,1.11441 2.494019,2.13443c0.622192,1.02005 0.933319,2.147186 0.933319,3.381439c0,1.591278 -0.515137,2.932617 -1.545349,4.024017c-1.030273,1.091461 -2.621521,1.785095 -4.773804,2.080902c0.785431,0.377411 1.382141,0.749725 1.790161,1.116943c0.867035,0.795624 1.688171,1.790161 2.463409,2.983612l3.901672,6.10495l-3.733368,0l-2.968323,-4.666687c-0.867035,-1.346466 -1.581055,-2.376678 -2.14209,-3.090729c-0.561005,-0.71402 -1.063385,-1.213837 -1.507111,-1.499451c-0.443726,-0.285614 -0.895081,-0.484528 -1.354095,-0.596741c-0.336609,-0.071381 -0.887451,-0.107086 -1.652466,-0.107086l-3.442627,0l0,9.960693l-2.968323,0zm2.968323,-12.531219l6.380341,0c1.356659,0.000031 2.41748,-0.140228 3.182526,-0.420746c0.765015,-0.280518 1.346466,-0.729279 1.744293,-1.346436c0.397797,-0.617096 0.59668,-1.287781 0.59671,-2.012024c-0.000031,-1.060822 -0.385071,-1.932983 -1.155182,-2.616425c-0.770172,-0.683411 -1.986572,-1.025116 -3.6492,-1.025116l-7.099487,0l0,7.420746zm17.167297,12.531219l8.614258,-22.430664l3.197815,0l9.180359,22.430664l-3.381439,0l-2.616394,-6.793488l-9.379272,0l-2.463409,6.793488l-3.151917,0zm6.472168,-9.210968l7.604401,0l-2.341003,-6.212036c-0.71405,-1.887054 -1.244476,-3.4375 -1.591248,-4.651398c-0.285645,1.438293 -0.688568,2.866364 -1.208771,4.28418l-2.463379,6.579254z" transform="translate(-106.25, -63.5364) scale(0.809895, 1.23473)"/>
   <path fill="#ffffff" stroke-width="1px" id="text3227" d="m128.35965,361.213013l0,-22.430695l7.726837,0c1.744232,0 3.075378,0.107117 3.993439,0.321289c1.285248,0.295837 2.381805,0.83136 3.289642,1.606567c1.183228,0.999664 2.068115,2.277252 2.654663,3.832825c0.586487,1.555573 0.879761,3.332977 0.879761,5.332245c0,1.703491 -0.198914,3.213135 -0.59671,4.528992c-0.397858,1.315857 -0.907867,2.404755 -1.53006,3.266693c-0.622253,0.861938 -1.303101,1.540253 -2.042633,2.034973c-0.739532,0.49472 -1.63208,0.869598 -2.677612,1.124603c-1.045563,0.255005 -2.246674,0.382507 -3.603302,0.382507l-8.094025,0zm2.968323,-2.647003l4.789093,0c1.479065,0 2.639343,-0.137695 3.480896,-0.413116c0.841522,-0.275421 1.512207,-0.663025 2.012024,-1.162842c0.703796,-0.703827 1.252075,-1.649933 1.644836,-2.838287c0.3927,-1.188324 0.58905,-2.62915 0.58905,-4.322418c0,-2.346069 -0.385071,-4.148987 -1.155212,-5.408783c-0.770111,-1.259705 -1.705994,-2.10379 -2.807617,-2.532227c-0.795654,-0.306 -2.075806,-0.459015 -3.840485,-0.459045l-4.712585,0l0,17.136719zm20.181519,2.647003l0,-22.430695l2.968323,0l0,22.430695l-2.968323,0zm8.23172,0l0,-22.430695l9.945435,0c1.999268,0 3.519104,0.201477 4.55957,0.60437c1.040405,0.402924 1.871765,1.11441 2.494019,2.13443c0.622192,1.02005 0.933289,2.147186 0.93335,3.381439c-0.000061,1.591278 -0.515167,2.932617 -1.54541,4.024048c-1.030243,1.091461 -2.621521,1.785095 -4.773773,2.080902c0.785431,0.377411 1.382141,0.749725 1.790192,1.116943c0.867004,0.795624 1.68811,1.790161 2.463379,2.983612l3.901672,6.10495l-3.733368,0l-2.968292,-4.666687c-0.867065,-1.346436 -1.581116,-2.376678 -2.14209,-3.090729c-0.561035,-0.71402 -1.063416,-1.213837 -1.507141,-1.499451c-0.443726,-0.285614 -0.895081,-0.484528 -1.354095,-0.596741c-0.336639,-0.071381 -0.887451,-0.107086 -1.652466,-0.107086l-3.442657,0l0,9.960693l-2.968323,0zm2.968323,-12.531219l6.380371,0c1.356628,0.000031 2.41748,-0.140228 3.182556,-0.420746c0.764984,-0.280518 1.346436,-0.72934 1.744263,-1.346466c0.397766,-0.617096 0.59668,-1.287781 0.59671,-2.012024c-0.000031,-1.060822 -0.385101,-1.932983 -1.155182,-2.616425c-0.770142,-0.683411 -1.986572,-1.025116 -3.649231,-1.025116l-7.099487,0l0,7.420776zm19.691925,12.531219l0,-22.430695l16.218658,0l0,2.646973l-13.250366,0l0,6.869995l12.408813,0l0,2.631714l-12.408813,0l0,7.63501l13.770569,0l0,2.647003l-16.738861,0zm36.874481,-7.864502l2.968323,0.749725c-0.622253,2.437897 -1.74173,4.296906 -3.35849,5.577057c-1.61676,1.280151 -3.593109,1.920227 -5.928986,1.920227c-2.417511,0 -4.383636,-0.492157 -5.898376,-1.476501c-1.514771,-0.984344 -2.667419,-2.409851 -3.457947,-4.27652c-0.790558,-1.866669 -1.185791,-3.871063 -1.185791,-6.013153c0,-2.335876 0.446259,-4.373413 1.338776,-6.112579c0.892548,-1.739166 2.162506,-3.06012 3.809875,-3.962891c1.647369,-0.90271 3.46048,-1.354065 5.439362,-1.354095c2.24408,0.000031 4.131165,0.571259 5.661224,1.713684c1.53006,1.142456 2.595978,2.749023 3.197845,4.819702l-2.922424,0.688507c-0.520233,-1.63205 -1.275055,-2.820374 -2.264496,-3.565033c-0.989441,-0.744629 -2.233917,-1.116943 -3.733337,-1.116943c-1.723877,0 -3.164703,0.413116 -4.322449,1.239349c-1.157745,0.826233 -1.971222,1.935547 -2.44043,3.327881c-0.469238,1.392365 -0.703827,2.828064 -0.703827,4.307129c0,1.907471 0.277954,3.572693 0.833893,4.995636c0.555908,1.422974 1.42038,2.486359 2.593445,3.190186c1.173035,0.703827 2.442993,1.055756 3.809845,1.055756c1.662659,0 3.070313,-0.479431 4.222961,-1.438263c1.152649,-0.958832 1.932983,-2.381805 2.341003,-4.26886l0,0zm12.347626,7.864502l0,-19.783722l-7.390228,0l0,-2.646973l17.779327,0l0,2.646973l-7.420807,0l0,19.783722l-2.968292,0zm12.546509,-10.924652c0,-3.723114 0.999603,-6.637909 2.998901,-8.744293c1.999268,-2.106384 4.579987,-3.159576 7.742126,-3.159576c2.070648,0 3.937347,0.49472 5.600006,1.484161c1.662659,0.989441 2.930054,2.369049 3.802216,4.138824c0.872131,1.769775 1.308197,3.776703 1.308197,6.020782c0,2.274689 -0.459015,4.309662 -1.377045,6.10495c-0.91806,1.795288 -2.218628,3.15448 -3.901672,4.077606c-1.683075,0.923126 -3.498749,1.384705 -5.447021,1.384705c-2.111481,0 -3.998566,-0.51001 -5.661224,-1.53006c-1.662659,-1.02002 -2.922424,-2.412384 -3.779236,-4.177063c-0.856842,-1.764648 -1.285248,-3.631348 -1.285248,-5.600037l0,0zm3.06012,0.045898c0,2.703125 0.726776,4.832458 2.180328,6.388031c1.453552,1.555542 3.276855,2.333344 5.469971,2.333344c2.233887,0 4.07251,-0.785431 5.515869,-2.356323c1.443359,-1.570831 2.165009,-3.799622 2.165039,-6.68634c-0.000031,-1.825867 -0.308594,-3.419678 -0.92569,-4.781464c-0.617126,-1.361725 -1.519867,-2.41748 -2.708191,-3.167206c-1.188385,-0.749725 -2.522095,-1.124603 -4.001129,-1.124603c-2.101288,0 -3.909302,0.72168 -5.424072,2.165039c-1.514771,1.443359 -2.272125,3.85321 -2.272125,7.229523l0,0zm22.247101,10.878754l0,-22.430695l9.945404,0c1.999268,0 3.519135,0.201477 4.55957,0.60437c1.040436,0.402924 1.871765,1.11441 2.494019,2.13443c0.622192,1.02005 0.933289,2.147186 0.933319,3.381439c-0.000031,1.591278 -0.515137,2.932617 -1.545349,4.024048c-1.030273,1.091461 -2.621521,1.785095 -4.773804,2.080902c0.785431,0.377411 1.382141,0.749725 1.790192,1.116943c0.867004,0.795624 1.688141,1.790161 2.463379,2.983612l3.901672,6.10495l-3.733368,0l-2.968323,-4.666687c-0.867035,-1.346436 -1.581055,-2.376678 -2.14209,-3.090729c-0.561035,-0.71402 -1.063385,-1.213837 -1.50708,-1.499451c-0.443756,-0.285614 -0.895111,-0.484528 -1.354126,-0.596741c-0.336609,-0.071381 -0.887451,-0.107086 -1.652466,-0.107086l-3.442627,0l0,9.960693l-2.968323,0zm2.968323,-12.531219l6.380341,0c1.356659,0.000031 2.41748,-0.140228 3.182526,-0.420746c0.765015,-0.280518 1.346436,-0.72934 1.744293,-1.346466c0.397797,-0.617096 0.59668,-1.287781 0.59671,-2.012024c-0.000031,-1.060822 -0.385071,-1.932983 -1.155182,-2.616425c-0.770142,-0.683411 -1.986542,-1.025116 -3.6492,-1.025116l-7.099487,0l0,7.420776z" transform="translate(-106.25, -63.5364) scale(0.809895, 1.23473)"/>
   <path fill="none" fill-rule="evenodd" stroke="#ffffff" stroke-width="2" stroke-miterlimit="4" id="path3231" d="m-29.249573,245.463562l675,0l0,0"/>
   <path fill="none" fill-rule="evenodd" stroke="#ffffff" stroke-width="2" stroke-miterlimit="4" id="path3233" d="m-29.249573,345.463562l675,0l0,0"/>
   <path fill="none" fill-rule="evenodd" stroke="#ffffff" stroke-width="2" stroke-miterlimit="4" id="path3235" d="m320.750427,245.463562l0,100l0,0"/>
   <path fill="none" fill-rule="evenodd" stroke="#ffffff" stroke-width="2" stroke-miterlimit="4" d="m-29.249573,395.463562l675,0l0,0" id="path3237"/>
   <path fill="none" fill-rule="evenodd" stroke="#ffffff" stroke-width="2" stroke-miterlimit="4" id="path3239" d="m-29.249573,445.463562l675,0l0,0"/>
   <path fill="#1a1a1a" fill-rule="evenodd" stroke="#1a1a1a" stroke-width="20" stroke-linecap="round" stroke-linejoin="round" stroke-miterlimit="4" id="path3243" d="m-29.249573,153.463562l150,0l-150,-149.999985l0,149.999985z"/>
   <path opacity="0.6" fill="url(#radialGradient3253)" fill-rule="nonzero" stroke-width="0" stroke-linecap="round" stroke-linejoin="round" stroke-miterlimit="4" stroke-dashoffset="10" d="m11.054626,142.554871a17.728138,20.152092 0 1 1-35.456238,0a17.728138,20.152092 0 1 135.456238,0z" id="path3245"/>
   <path opacity="0.6" fill="url(#radialGradient3257)" fill-rule="nonzero" stroke-width="0" stroke-linecap="round" stroke-linejoin="round" stroke-miterlimit="4" stroke-dashoffset="10" id="path3255" d="m105.104065,143.524414a17.728138,20.152092 0 1 1-35.456299,0a17.728138,20.152092 0 1 135.456299,0z"/>
   <path opacity="0.6" fill="url(#radialGradient3261)" fill-rule="nonzero" stroke-width="0" stroke-linecap="round" stroke-linejoin="round" stroke-miterlimit="4" stroke-dashoffset="10" d="m12.024231,46.566269a17.728138,20.152092 0 1 1-35.456299,0a17.728138,20.152092 0 1 135.456299,0z" id="path3259"/>
   <path fill="#ffffff" stroke-width="1px" id="text3211" d="m128.35965,272.206848l2.800018,-0.244812c0.132599,1.12207 0.441162,2.042664 0.92569,2.76178c0.484528,0.719116 1.236786,1.300507 2.256836,1.744232c1.02005,0.443726 2.167572,0.665588 3.442657,0.665588c1.132202,0 2.131866,-0.168304 2.998901,-0.504944c0.867035,-0.336609 1.512207,-0.798157 1.935547,-1.384644c0.423279,-0.586548 0.634949,-1.226624 0.634949,-1.920258c0,-0.703796 -0.20401,-1.31839 -0.612,-1.843719c-0.408051,-0.525299 -1.081268,-0.966461 -2.019714,-1.323486c-0.601807,-0.234619 -1.932983,-0.599274 -3.993439,-1.093994c-2.060516,-0.49472 -3.503876,-0.961395 -4.330078,-1.400024c-1.071045,-0.561005 -1.869232,-1.257172 -2.394562,-2.088531c-0.52533,-0.831329 -0.787964,-1.762085 -0.787964,-2.792358c0,-1.132233 0.321289,-2.190521 0.963928,-3.174896c0.642639,-0.984314 1.581055,-1.731476 2.815308,-2.241516c1.234253,-0.51001 2.606201,-0.765015 4.115906,-0.765045c1.662628,0.000031 3.128937,0.267792 4.398926,0.803284c1.269897,0.535553 2.246582,1.323547 2.930054,2.363953c0.683411,1.040466 1.050598,2.218597 1.101624,3.534454l-2.845886,0.214203c-0.153046,-1.417847 -0.670715,-2.488892 -1.55304,-3.213135c-0.882324,-0.724213 -2.185425,-1.086334 -3.909302,-1.086365c-1.795288,0.000031 -3.103485,0.32901 -3.924622,0.986908c-0.821106,0.657959 -1.231689,1.451019 -1.231689,2.379242c0,0.805847 0.29071,1.468872 0.872131,1.989075c0.571228,0.520233 2.063049,1.053223 4.475464,1.598938c2.412354,0.545715 4.067383,1.022583 4.965027,1.430603c1.305664,0.601837 2.269592,1.364319 2.891815,2.287445c0.622223,0.923126 0.933319,1.986542 0.93335,3.190186c-0.000031,1.193451 -0.341736,2.318024 -1.025146,3.373749c-0.683441,1.055725 -1.665253,1.876862 -2.945374,2.463409c-1.280182,0.586517 -2.720978,0.879761 -4.322418,0.879761c-2.029907,0 -3.730835,-0.295807 -5.102783,-0.887421c-1.371948,-0.591644 -2.44809,-1.481598 -3.228394,-2.669952c-0.780334,-1.188324 -1.190918,-2.532227 -1.23172,-4.031708l0,0zm37.945557,-0.657898l2.968292,0.749725c-0.622223,2.437897 -1.741699,4.296875 -3.358459,5.577026c-1.616791,1.280151 -3.59314,1.920227 -5.929016,1.920227c-2.41748,0 -4.383606,-0.492157 -5.898376,-1.476501c-1.514771,-0.984344 -2.667419,-2.409851 -3.457947,-4.276489c-0.790527,-1.866669 -1.185791,-3.871063 -1.185791,-6.013153c0,-2.335876 0.446289,-4.373413 1.338806,-6.11261c0.892517,-1.739136 2.162476,-3.060089 3.809875,-3.96286c1.647339,-0.90271 3.460449,-1.354065 5.439331,-1.354095c2.24408,0.000031 4.131165,0.571259 5.661255,1.713684c1.530029,1.142456 2.595978,2.749023 3.197815,4.819672l-2.922424,0.688538c-0.520233,-1.63205 -1.275055,-2.820374 -2.264465,-3.565033c-0.989471,-0.744629 -2.233917,-1.116943 -3.733368,-1.116943c-1.723877,0 -3.164703,0.413116 -4.322418,1.239349c-1.157776,0.826233 -1.971252,1.935547 -2.44046,3.327881c-0.469208,1.392365 -0.703827,2.828064 -0.703827,4.307129c0,1.907471 0.277954,3.572693 0.833893,4.995636c0.555908,1.422974 1.42038,2.486359 2.593445,3.190155c1.173065,0.703827 2.442993,1.055756 3.809845,1.055756c1.662659,0 3.070313,-0.479431 4.222992,-1.438263c1.152618,-0.958801 1.932953,-2.381775 2.341003,-4.268829l0,0zm6.70166,7.864471l0,-22.430695l16.218658,0l0,2.647034l-13.250336,0l0,6.869965l12.408783,0l0,2.631714l-12.408783,0l0,7.634979l13.770569,0l0,2.647003l-16.738892,0zm20.839447,0l0,-22.430695l3.04483,0l11.781464,17.611023l0,-17.611023l2.845917,0l0,22.430695l-3.0448,0l-11.781494,-17.626282l0,17.626282l-2.845917,0zm22.736725,0l0,-22.430695l16.218658,0l0,2.647034l-13.250336,0l0,6.869965l12.408813,0l0,2.631714l-12.408813,0l0,7.634979l13.770569,0l0,2.647003l-16.738892,0z" transform="translate(-106.25, -63.5364) scale(0.809895, 1.23473)"/>
   <path fill="#ffffff" stroke-width="1px" id="text3215" d="m566.644104,279.030914l0,-19.783691l-7.390198,0l0,-2.646973l17.779297,0l0,2.646973l-7.420776,0l0,19.783691l-2.968323,0zm10.98584,0l8.614258,-22.430664l3.197815,0l9.180359,22.430664l-3.381409,0l-2.616394,-6.793457l-9.379272,0l-2.46344,6.793457l-3.151917,0zm6.472168,-9.210938l7.604431,0l-2.341003,-6.212067c-0.71405,-1.887054 -1.244507,-3.4375 -1.591309,-4.651398c-0.285583,1.438293 -0.688538,2.866364 -1.20874,4.28418l-2.463379,6.579285zm16.80011,9.210938l0,-22.430664l2.968262,0l0,11.123535l11.138916,-11.123535l4.024048,0l-9.409912,9.088562l9.822998,13.342102l-3.916931,0l-7.986938,-11.353027l-3.67218,3.580353l0,7.772675l-2.968262,0zm21.114807,0l0,-22.430664l16.218689,0l0,2.646973l-13.250366,0l0,6.869995l12.408813,0l0,2.631714l-12.408813,0l0,7.634979l13.770569,0l0,2.647003l-16.738892,0z" transform="translate(-106.25, -63.5364) scale(0.809895, 1.23473)"/>
  </g>
 </g>
</svg>